<svg xmlns="http://www.w3.org/2000/svg" xmlns:svg="http://www.w3.org/2000/svg" id="svg9" width="32" height="32" version="1.1" viewBox="0 0 32 32"><metadata id="metadata13"/><title id="title2">Unsplash</title><description>Created with Sketch (http://www.bohemiancoding.com/sketch)</description><g id="Page-1" fill="#000" fill-opacity="1" fill-rule="evenodd" stroke="none" stroke-width="1" transform="matrix(0.29154181,0,0,0.29154181,0.76676655,2.9944705)"><g id="365-photos-later" fill="#000" fill-opacity="1" transform="translate(1)"><path id="Shape" fill="#000" fill-opacity="1" d="m 51.2,36.1 c -8.5,0 -15.5,6.9 -15.5,15.5 0,8.6 7,15.4 15.5,15.4 8.5,0 15.5,-6.9 15.5,-15.5 0,-8.6 -6.9,-15.4 -15.5,-15.4 z M 89,13.7 H 77 L 74.3,6.4 C 72.9,2.9 68.7,0 65,0 H 37.5 c -3.8,0 -7.9,2.9 -9.3,6.4 l -2.7,7.3 h -12 c -7.6,0 -13.7,6.2 -13.7,13.7 v 48.1 c 0,7.6 6.2,13.7 13.7,13.7 H 89 c 7.6,0 13.7,-6.2 13.7,-13.7 v -48 C 102.8,19.9 96.6,13.7 89,13.7 Z M 51.2,75.6 c -13.3,0 -24,-10.8 -24,-24 0,-13.2 10.8,-24 24,-24 13.3,0 24,10.8 24,24 0,13.2 -10.7,24 -24,24 z"/></g></g></svg>